<?xml version="1.0" standalone="no"?>
<!DOCTYPE svg PUBLIC "-//W3C//DTD SVG 20010904//EN"
 "http://www.w3.org/TR/2001/REC-SVG-20010904/DTD/svg10.dtd">
<svg version="1.0" xmlns="http://www.w3.org/2000/svg"
 width="661.000000pt" height="661.000000pt" viewBox="0 0 661.000000 661.000000"
 preserveAspectRatio="xMidYMid meet">
<metadata>
Created by potrace 1.14, written by Peter Selinger 2001-2017
</metadata>
<g transform="translate(0.000000,661.000000) scale(0.100000,-0.100000)"
fill="#000000" stroke="none">
<path d="M2931 6593 c-19 -10 -48 -35 -65 -56 l-31 -39 -2 -300 c0 -164 -3
-301 -5 -303 -2 -3 -305 -5 -674 -5 -368 -1 -687 -5 -709 -10 -22 -5 -55 -12
-74 -15 -104 -18 -259 -91 -359 -169 -158 -123 -266 -281 -329 -483 l-28 -88
0 -1210 c0 -665 4 -1230 8 -1255 12 -68 63 -212 98 -277 110 -206 314 -376
530 -443 138 -43 179 -46 541 -46 191 1 349 -1 349 -4 1 -3 2 -399 3 -880 2
-962 -2 -903 63 -961 53 -48 62 -49 417 -46 l332 2 41 27 c24 16 49 44 61 70
20 41 21 60 22 392 0 193 3 352 5 354 10 10 347 7 353 -3 4 -5 7 -168 7 -360
0 -394 -1 -385 78 -449 l39 -31 335 -3 c326 -3 335 -3 379 19 49 23 93 79 99
125 2 16 4 417 4 890 l1 861 349 1 c358 1 415 5 539 44 72 22 205 85 210 99 2
5 8 9 14 9 6 0 41 24 78 54 165 133 278 317 324 526 15 68 16 191 14 1290 -3
1125 -4 1219 -21 1274 -96 321 -312 551 -608 650 -138 46 -183 49 -884 50
l-660 1 -2 291 c-1 273 -3 294 -22 332 -11 22 -35 51 -53 64 -33 23 -34 23
-383 26 -319 2 -353 1 -384 -15z"/>
<path d="M1149 1679 c-48 -7 -91 -35 -119 -77 l-25 -36 -1 -552 c-1 -595 -1
-591 51 -637 50 -45 70 -47 382 -47 276 0 300 1 337 20 23 11 52 36 66 57 l25
37 0 560 c0 561 0 561 -22 596 -12 20 -40 46 -63 59 -39 22 -49 23 -319 24
-153 1 -294 0 -312 -4z"/>
<path d="M4778 1679 c-96 -8 -147 -46 -167 -124 -6 -24 -9 -159 -8 -331 l2
-291 27 -39 c57 -82 25 -78 626 -79 332 0 547 3 570 10 46 12 71 30 100 72 22
30 22 37 22 348 0 308 -1 318 -22 356 -14 25 -37 46 -64 60 -42 20 -60 21
-531 22 -268 1 -518 -1 -555 -4z"/>
</g>
</svg>
