<svg id="Capa_1" data-name="Capa 1" xmlns="http://www.w3.org/2000/svg" viewBox="0 0 435.13 492.94"><defs><style>.cls-1{fill:#fff;}</style></defs><polygon class="cls-1" points="0 150.78 91.16 0 181.88 150.78 90.94 205.89 0 150.78"/><polygon class="cls-1" points="0.66 168.1 90.94 296.57 181.88 168.49 91.16 221.76 0.66 168.1"/><path class="cls-1" d="M477.51,400.58l27.25-14.32.87-20.25a20.21,20.21,0,0,0-10.2-18.43l-56.14-31.93a17.87,17.87,0,0,0-17.43-.14l-60,32.88a13.66,13.66,0,0,0-7.09,12V430a14.65,14.65,0,0,0,7.41,12.73l58.42,33.19a20.15,20.15,0,0,0,19.66.15l102.31-59.67a21.2,21.2,0,0,1,21.59.14l32.38,18.42a10.92,10.92,0,0,1,5.52,9.49v40.51a14.85,14.85,0,0,1-8.46,13.41l-32.94,18.81a13.11,13.11,0,0,1-13.5-.29l-35.93-20.33a13.27,13.27,0,0,1-6.72-11.84l.55-23.61-28,13.64.66,24.26a17,17,0,0,0,8.68,14.36L546.48,547A15.69,15.69,0,0,0,562,547l58.91-33.7a17.1,17.1,0,0,0,8.67-14.62l1-66.36a14.45,14.45,0,0,0-7.19-12.49L564,385.35a21.62,21.62,0,0,0-21.14.19L434.55,447.47a9.58,9.58,0,0,1-9.23.16l-32.3-17a20.92,20.92,0,0,1-11.86-19.26l.67-36a11.79,11.79,0,0,1,5.86-10l34.91-20.3a14.68,14.68,0,0,1,15.18,0l36,21.85a8.18,8.18,0,0,1,3.93,7.06Z" transform="translate(-195.45 -56.08)"/></svg>