<svg id="Capa_1" data-name="Capa 1" xmlns="http://www.w3.org/2000/svg" viewBox="0 0 712.91 418.71"><defs><style>.cls-1{fill:#fff;}</style></defs><polygon class="cls-1" points="0 212.87 128.71 0 256.78 212.87 128.39 290.69 0 212.87"/><polygon class="cls-1" points="0.93 237.33 128.39 418.71 256.78 237.88 128.71 313.09 0.93 237.33"/><path class="cls-1" d="M542.91,217.59l38.46-20.22,1.23-28.59a28.51,28.51,0,0,0-14.39-26L488.94,97.67a25.22,25.22,0,0,0-24.6-.19l-84.7,46.42a19.27,19.27,0,0,0-10,16.9v98.28a20.66,20.66,0,0,0,10.46,18l82.47,46.87a28.48,28.48,0,0,0,27.76.2l144.44-84.24a29.93,29.93,0,0,1,30.48.19l45.72,26a15.43,15.43,0,0,1,7.79,13.4v57.2a21,21,0,0,1-12,18.93l-46.49,26.55a18.54,18.54,0,0,1-19.07-.4l-50.72-28.71A18.7,18.7,0,0,1,581,336.34l.78-33.32-39.51,19.25.93,34.26a24,24,0,0,0,12.25,20.27l84.79,47.46a22.13,22.13,0,0,0,21.94,0l83.17-47.58A24.12,24.12,0,0,0,757.62,356L759,262.34a20.37,20.37,0,0,0-10.16-17.63L665,196.08a30.54,30.54,0,0,0-29.84.26L482.25,283.78a13.51,13.51,0,0,1-13,.23l-45.61-24a29.55,29.55,0,0,1-16.75-27.2l.95-50.76A16.66,16.66,0,0,1,416.1,168l49.28-28.65a20.68,20.68,0,0,1,21.43,0l50.89,30.85a11.54,11.54,0,0,1,5.55,10Z" transform="translate(-46.1 -46.61)"/></svg>