<svg id="Capa_1" data-name="Capa 1" xmlns="http://www.w3.org/2000/svg" viewBox="0 0 352.23 352.23"><defs><style>.cls-1{fill:#fff;}</style></defs><path class="cls-1" d="M449.4,296.94a2,2,0,1,0,2.48.63Z" transform="translate(-244.88 -121.38)"/><path class="cls-1" d="M397.34,296.21l-3.14.8a2.18,2.18,0,0,0-.13.72,2,2,0,0,0,4,0A2,2,0,0,0,397.34,296.21Z" transform="translate(-244.88 -121.38)"/><path class="cls-1" d="M302.05,274c-7.23,2.15-9.77,14.55-5.69,27.68,4,12.93,13,21.74,20.13,20l-5.72-4.93h7.6l-4.78-6.62,6.76,2.76-2.26-10.52,6.23,6.85a39.2,39.2,0,0,0-1.79-15.32C318.44,280.7,309.27,271.79,302.05,274Z" transform="translate(-244.88 -121.38)"/><path class="cls-1" d="M537.07,275.94c-7.23-2.15-16.4,6.75-20.48,19.89a39.36,39.36,0,0,0-1.8,15.31L521,304.3l-2.25,10.51,6.76-2.75-4.79,6.61h7.6l-5.72,4.93c7.17,1.77,16.11-7.05,20.13-20C546.84,290.49,544.29,278.1,537.07,275.94Z" transform="translate(-244.88 -121.38)"/><path class="cls-1" d="M421,121.38A176.12,176.12,0,1,0,597.12,297.5,176.12,176.12,0,0,0,421,121.38Zm21.83,300.26c-13.35,0-9.15-10.58-32.26-3.85-22.38,6.53-25-9-25-9s.4-1.12,3.66,1.61c13.43,11.22,23-1,29.12-3.21l1.22-.46c.36-8.61.58-17.82.58-27.61s-.65-27.85-.65-28.15c0-3.78-1.75-6.84-3.9-6.84s-3.9,3.06-3.9,6.84a10.92,10.92,0,0,0,.5,3.29,6.9,6.9,0,0,1-5.44-6.64,7.13,7.13,0,0,1,14.18-.76c.42-3.42,3.67-6.08,7.61-6.08,4.23,0,7.66,3.06,7.66,6.84a7.05,7.05,0,0,1-5.86,6.64,10.31,10.31,0,0,0,.54-3.29c0-3.78-1.88-6.84-4.2-6.84-2.14,0-3.88,2.61-4.14,6,0,0-.43,18.86-.43,29,0,9.33.18,18.18.47,26.56,4.44-1.39,7.95,1.89,12.73,6.65,8.67,8.65,20.85-3.54,20.85-3.54S448.72,421.64,442.83,421.64ZM361.55,300.13l-1.13-2.75c-3.47-13.5,5.47-25.44,19-28.91h0a21.12,21.12,0,0,1,25.71,15.2l1.62,7.66.8-.15a5.1,5.1,0,0,1,.12,1.11c0,7.24-9.16,13.25-20.95,13.74L375,308c-8.31,1.39-14.5-3.2-13.26-7.44C361.65,300.41,361.6,300.28,361.55,300.13ZM438.33,290l1.55-6a21.12,21.12,0,0,1,25.72-15.2h0c13.5,3.46,20.55,14.23,18.61,27.89L483,301c2.32,4.43-4.11,9.71-12.93,8.23l-11.72-2c-11.8-.49-21-6.49-21-13.73a5.27,5.27,0,0,1,.13-1.12l1,.2A7.9,7.9,0,0,1,438.33,290Zm81.53,36.91a14.28,14.28,0,0,1-7.7-6.84c-3.11,6.55-28.18,50.55-28.18,50.55S471.55,337.33,456.53,332a43,43,0,1,0-34.9-42.2c0,.83,0,1.65.08,2.46h-.79c0-.82.08-1.63.08-2.46a43,43,0,1,0-33.9,42c-11,4.48-28,37.16-28,37.16s-26.7-43.9-29.73-50.66c-2.12,4.69-5.37,8-9.58,9.21-10.7,3-23.42-9-28.4-26.8S291,266,301.72,263c6.66-1.86,14.11,2.09,20,9.64,4.14-47,43.89-84.24,93.39-87.09l2-1.68,10.95-10.51-5,10.51,7.23-6.05v6.05l4.88-3.76-1.5,6c46.48,5.53,83,41.54,87,86.44,6.37-7.53,14.22-11.27,20.92-9,10.51,3.61,14.17,20.71,8.17,38.19S530.37,330.5,519.86,326.9Z" transform="translate(-244.88 -121.38)"/></svg>