<svg id="Capa_1" data-name="Capa 1" xmlns="http://www.w3.org/2000/svg" viewBox="0 0 414.3 414.34"><defs><style>.cls-1{fill:#fff;}.cls-2{fill:none;}</style></defs><rect class="cls-1" x="311.88" width="8" height="24.69" rx="4"/><rect class="cls-1" x="378.57" width="8" height="24.69" rx="4"/><path class="cls-2" d="M243.87,385.14l11.72-2c11.79-.49,21-6.49,21-13.73a5.26,5.26,0,0,0-.12-1.12l-.79.16L274,360.82a21.12,21.12,0,0,0-25.71-15.2h0c-13.5,3.46-22.44,15.41-19,28.91l1.13,2.75c.05.15.11.28.16.42C229.37,381.94,235.56,386.53,243.87,385.14Zm19.24-11,3.13-.8a2,2,0,0,1,.72,1.52,2,2,0,0,1-4,0A1.89,1.89,0,0,1,263.11,374.16Z" transform="translate(-113.79 -136.42)"/><path class="cls-2" d="M306.25,370.72c0,7.24,9.16,13.24,20.95,13.73l11.72,2c8.83,1.48,15.26-3.8,12.93-8.23l1.26-4.4c1.95-13.67-5.11-24.43-18.61-27.9h0a21.12,21.12,0,0,0-25.71,15.21l-1.55,6a7.93,7.93,0,0,0,.13,2.66l-1-.19A5.13,5.13,0,0,0,306.25,370.72Zm12.06,3.36,2.48.64a2,2,0,1,1-2.48-.64Z" transform="translate(-113.79 -136.42)"/><path class="cls-2" d="M410.48,340.72c-6.69-2.29-14.54,1.45-20.91,9-4-44.9-40.56-80.91-87-86.43l1.5-6L299.15,261v-6l-7.23,6,5-10.51L286,261l-2,1.69c-49.5,2.85-89.25,40.12-93.38,87.09-5.88-7.55-13.33-11.51-20-9.64-10.7,3-15.33,19.86-10.34,37.66s17.71,29.8,28.41,26.8c4.21-1.18,7.46-4.53,9.57-9.21,3,6.76,29.73,50.66,29.73,50.66s17-32.68,28-37.16a43,43,0,1,1,33.9-42c0,.83,0,1.64-.08,2.46h.79c-.05-.82-.08-1.63-.08-2.46a43.12,43.12,0,1,1,34.9,42.19c15,5.38,27.46,38.67,27.46,38.67s25.06-44,28.17-50.55a14.22,14.22,0,0,0,7.7,6.83c10.51,3.61,23.89-7.64,29.89-25.13S421,344.33,410.48,340.72ZM193.23,386.3,187,379.45,189.25,390l-6.76-2.76,4.79,6.62h-7.6l5.72,4.92c-7.17,1.77-16.11-7.05-20.13-20-4.09-13.14-1.55-25.53,5.68-27.68s16.39,6.74,20.48,19.88A39.39,39.39,0,0,1,193.23,386.3Zm218.42-5.53c-4,12.93-13,21.75-20.12,20l5.72-4.93h-7.61l4.79-6.61L387.67,392l2.26-10.52-6.23,6.85A39.15,39.15,0,0,1,385.49,373c4.09-13.14,13.26-22,20.48-19.89S415.74,367.64,411.65,380.77Z" transform="translate(-113.79 -136.42)"/><path class="cls-2" d="M304.24,489.5c-4.78-4.77-8.29-8-12.73-6.65-.3-8.38-.48-17.23-.48-26.57,0-10.16.43-29,.43-29,.26-3.36,2-6,4.14-6,2.32,0,4.2,3.06,4.2,6.84a10,10,0,0,1-.54,3.28,7,7,0,0,0,5.87-6.64c0-3.77-3.43-6.83-7.67-6.83-3.94,0-7.18,2.66-7.61,6.07a7.13,7.13,0,0,0-14.18.76,6.88,6.88,0,0,0,5.45,6.64,10.9,10.9,0,0,1-.5-3.28c0-3.78,1.74-6.84,3.89-6.84s3.9,3.06,3.9,6.84c0,.3.65,18.42.65,28.14s-.22,19-.57,27.62l-1.22.46c-6.08,2.24-15.7,14.43-29.13,3.2-3.25-2.72-3.66-1.6-3.66-1.6s2.62,15.5,25,9c23.12-6.74,18.91,3.86,32.26,3.85,5.9,0,13.36-12.83,13.36-12.83S312.9,498.15,304.24,489.5Z" transform="translate(-113.79 -136.42)"/><path class="cls-2" d="M415,250.65a12.29,12.29,0,0,0,7,2.2h82.71A12.33,12.33,0,0,0,517,240.52V198.73a12.33,12.33,0,0,0-12.33-12.33H422a12.33,12.33,0,0,0-12.33,12.33v41.79a12.22,12.22,0,0,0,2.34,7.2C413,248.69,414,249.66,415,250.65Z" transform="translate(-113.79 -136.42)"/><path class="cls-1" d="M319.17,377.87a2,2,0,0,0,1.62-3.15l-2.48-.64a2,2,0,0,0,.86,3.79Z" transform="translate(-113.79 -136.42)"/><path class="cls-1" d="M265,376.87a2,2,0,0,0,2-2,2,2,0,0,0-.72-1.52l-3.13.8a1.89,1.89,0,0,0-.14.72A2,2,0,0,0,265,376.87Z" transform="translate(-113.79 -136.42)"/><path class="cls-1" d="M171,351.1c-7.23,2.15-9.77,14.54-5.68,27.68,4,12.92,13,21.74,20.13,20l-5.72-4.92h7.6l-4.79-6.62,6.76,2.76L187,379.45l6.23,6.85a39.39,39.39,0,0,0-1.8-15.32C187.34,357.84,178.17,348.94,171,351.1Z" transform="translate(-113.79 -136.42)"/><path class="cls-1" d="M406,353.09c-7.22-2.15-16.39,6.75-20.48,19.89a39.15,39.15,0,0,0-1.79,15.31l6.23-6.85L387.67,392l6.76-2.75-4.79,6.61h7.61l-5.72,4.93c7.16,1.77,16.1-7.05,20.12-20C415.74,367.64,413.2,355.24,406,353.09Z" transform="translate(-113.79 -136.42)"/><path class="cls-1" d="M415,250.65c-1-1-2-2-3-2.93A12.16,12.16,0,0,0,415,250.65Z" transform="translate(-113.79 -136.42)"/><path class="cls-1" d="M398.57,239.58v-3.53a176.23,176.23,0,1,0,25.56,24.59h-4.5A21.06,21.06,0,0,1,398.57,239.58ZM311.73,498.79c-13.35,0-9.14-10.59-32.26-3.85-22.37,6.52-25-9-25-9s.41-1.12,3.66,1.6c13.43,11.23,23.05-1,29.13-3.2l1.22-.46c.35-8.61.57-17.83.57-27.62s-.65-27.84-.65-28.14c0-3.78-1.74-6.84-3.9-6.84s-3.89,3.06-3.89,6.84a10.9,10.9,0,0,0,.5,3.28,6.88,6.88,0,0,1-5.45-6.64,7.13,7.13,0,0,1,14.18-.76c.43-3.41,3.67-6.07,7.61-6.07,4.24,0,7.67,3.06,7.67,6.83a7,7,0,0,1-5.87,6.64,10,10,0,0,0,.54-3.28c0-3.78-1.88-6.84-4.2-6.84-2.13,0-3.88,2.61-4.14,6,0,0-.42,18.85-.43,29,0,9.34.18,18.19.48,26.57,4.44-1.39,7.95,1.88,12.73,6.65,8.66,8.65,20.85-3.54,20.85-3.54S317.63,498.79,311.73,498.79ZM230.45,377.28l-1.13-2.75c-3.47-13.5,5.47-25.45,19-28.91h0A21.12,21.12,0,0,1,274,360.82l1.63,7.66.79-.16a5.26,5.26,0,0,1,.12,1.12c0,7.24-9.16,13.24-21,13.73l-11.72,2c-8.31,1.39-14.5-3.2-13.26-7.44C230.56,377.56,230.5,377.43,230.45,377.28Zm76.79-10.15,1.55-6a21.12,21.12,0,0,1,25.71-15.21h0c13.5,3.47,20.56,14.23,18.61,27.9l-1.26,4.4c2.33,4.43-4.1,9.71-12.93,8.23l-11.72-2c-11.79-.49-20.95-6.49-20.95-13.73a5.13,5.13,0,0,1,.12-1.12l1,.19A7.93,7.93,0,0,1,307.24,367.13Zm111.41,11.78c-6,17.49-19.38,28.74-29.89,25.13a14.22,14.22,0,0,1-7.7-6.83c-3.11,6.55-28.17,50.55-28.17,50.55s-12.44-33.29-27.46-38.67a43,43,0,1,0-34.9-42.19c0,.83,0,1.64.08,2.46h-.79c.05-.82.08-1.63.08-2.46a43,43,0,1,0-33.9,42c-11,4.48-28,37.16-28,37.16s-26.7-43.9-29.73-50.66c-2.11,4.68-5.36,8-9.57,9.21-10.7,3-23.42-9-28.41-26.8s-.36-34.66,10.34-37.66c6.66-1.87,14.11,2.09,20,9.64,4.13-47,43.88-84.24,93.38-87.09l2-1.69L297,250.5l-5,10.51,7.23-6v6l4.88-3.75-1.5,6c46.48,5.52,83,41.53,87,86.43,6.37-7.52,14.22-11.26,20.91-9C421,344.33,424.65,361.42,418.65,378.91Z" transform="translate(-113.79 -136.42)"/><path class="cls-1" d="M507,148.77h-3.25v8.32a7.07,7.07,0,0,1-7.06,7.07h-.51a7.08,7.08,0,0,1-7.07-7.07v-8.32H436.87v8.32a7.08,7.08,0,0,1-7.07,7.07h-.51a7.08,7.08,0,0,1-7.07-7.07v-8.32h-2.59a21.06,21.06,0,0,0-21.06,21.06v66.22A177.16,177.16,0,0,1,412,247.72a12.22,12.22,0,0,1-2.34-7.2V198.73A12.33,12.33,0,0,1,422,186.4h82.71A12.33,12.33,0,0,1,517,198.73v41.79a12.33,12.33,0,0,1-12.33,12.33H422a12.29,12.29,0,0,1-7-2.2q4.77,4.82,9.17,10H507a21.06,21.06,0,0,0,21.06-21.06V169.83A21.06,21.06,0,0,0,507,148.77Z" transform="translate(-113.79 -136.42)"/><path class="cls-1" d="M434,216.3s8.93,6.38,14,13.72,8,12.44,8,12.44,8.61-16.59,18.5-29,18.17-22.32,18.17-22.32-26.47,14.67-33.8,35.4c-2,5.53-2.23,5.42-2.23,5.42a14,14,0,0,0-3.51-7.65C442.6,213.75,434,216.3,434,216.3Z" transform="translate(-113.79 -136.42)"/></svg>