<svg id="Capa_1" data-name="Capa 1" xmlns="http://www.w3.org/2000/svg" viewBox="0 0 842 595"><defs><style>.cls-1,.cls-2,.cls-3{fill:none;stroke:#fff;stroke-miterlimit:10;}.cls-1{stroke-width:0.9px;}.cls-2{stroke-width:0.88px;}.cls-3{stroke-width:0.92px;}.cls-4{fill:#fff;}</style></defs><rect class="cls-1" x="396.44" y="393.87" width="118.96" height="18.89"/><rect class="cls-2" x="396.44" y="436.78" width="118.96" height="17.79"/><rect class="cls-3" x="261.3" y="201.5" width="174.25" height="19.85"/><polygon class="cls-4" points="279.16 183.46 414.49 183.46 414.49 201.32 435.55 201.32 430.25 190.42 415.57 183.46 415.57 160.72 278.08 160.72 278.08 183.46 261.3 183.46 261.3 201.32 279.16 201.32 279.16 183.46"/><path class="cls-4" d="M239.76,304.71h37.6v16.78h20.93v17h39v-17h22V304.71h35.32v16.78H414.8v17h20.75v34.34H414.49v21.08h42.14V321.49H474V282H459.64V201.32H435.55v20H261.3v-20H237.21V282H218.67v56.48h21.09Zm195.79-60.63V282H261.3V244.08Z"/><rect class="cls-4" x="359.27" y="358.65" width="38.97" height="16.96"/><rect class="cls-4" x="200.81" y="338.45" width="17.86" height="17.86"/><rect class="cls-4" x="515.79" y="412.77" width="19.94" height="24.02"/><path class="cls-4" d="M396.44,394.88H298.29V377.39H277.36V356.58H263.84V338.45H239.76v17.86H218.67v21.08h21.09V535.12h24.08V436.78h13.52v19.29h20.93v19.58h20v59.47H339.4V494.67h77.34v-19h19.14V454.57H396.44V436.78H337.26V414.17h59.18v22.61H496v-24H396.44Zm-132.6,1.76h.08v16.13h-.08Z"/><rect class="cls-4" x="494.32" y="254.91" width="21.08" height="117.88"/><path class="cls-4" d="M590.49,23.1h-5.3V36.68A11.52,11.52,0,0,1,573.67,48.2h-.83a11.52,11.52,0,0,1-11.52-11.52V23.1H476.09V36.68A11.52,11.52,0,0,1,464.57,48.2h-.83a11.52,11.52,0,0,1-11.52-11.52V23.1H448a34.35,34.35,0,0,0-34.34,34.34V171.17A34.34,34.34,0,0,0,448,205.51h142.5a34.34,34.34,0,0,0,34.34-34.34V57.44A34.35,34.35,0,0,0,590.49,23.1Zm16.28,149.6a20.1,20.1,0,0,1-20.1,20.11H451.82a20.11,20.11,0,0,1-20.11-20.11V104.57a20.1,20.1,0,0,1,20.11-20.1H586.67a20.1,20.1,0,0,1,20.1,20.1Z"/><path class="cls-4" d="M476.91,139.65s14.56,10.4,22.88,22.36,13,20.28,13,20.28,14-27,30.16-47.32,29.64-36.4,29.64-36.4-43.16,23.92-55.12,57.72c-3.19,9-3.64,8.84-3.64,8.84s-.72-7.47-5.72-12.48C491,135.49,476.91,139.65,476.91,139.65Z"/></svg>